<svg width="323" height="171" viewBox="0 0 323 171" fill="none" xmlns="http://www.w3.org/2000/svg">
<path d="M172.085 124.24V94.4283H187.812L184.725 100.071H178.584V111.831L172.085 124.24ZM172.085 132.033V139.827H191.256C196.108 139.827 200.376 138.875 204.058 136.973C207.784 135.071 210.665 132.412 212.702 128.996C214.781 125.58 215.821 121.624 215.821 117.127C215.821 112.631 214.781 108.675 212.702 105.259C210.665 101.843 207.784 99.1843 204.058 97.2821C200.538 95.4634 196.484 94.514 191.895 94.4338L188.87 100.071H190.866C194.635 100.071 197.885 100.784 200.614 102.211C203.387 103.638 205.531 105.627 207.048 108.178C208.564 110.728 209.322 113.712 209.322 117.127C209.322 120.5 208.564 123.483 207.048 126.077C205.531 128.628 203.387 130.617 200.614 132.044C197.885 133.471 194.635 134.184 190.866 134.184H178.584V119.549L172.085 132.033Z" fill="#212121"/>
<path d="M172.085 124.24V94.4283H187.812L184.725 100.071H178.584V111.831L172.085 124.24ZM172.085 132.033V139.827H191.256C196.108 139.827 200.376 138.875 204.058 136.973C207.784 135.071 210.665 132.412 212.702 128.996C214.781 125.58 215.821 121.624 215.821 117.127C215.821 112.631 214.781 108.675 212.702 105.259C210.665 101.843 207.784 99.1843 204.058 97.2821C200.538 95.4634 196.484 94.514 191.895 94.4338L188.87 100.071H190.866C194.635 100.071 197.885 100.784 200.614 102.211C203.387 103.638 205.531 105.627 207.048 108.178C208.564 110.728 209.322 113.712 209.322 117.127C209.322 120.5 208.564 123.483 207.048 126.077C205.531 128.628 203.387 130.617 200.614 132.044C197.885 133.471 194.635 134.184 190.866 134.184H178.584V119.549L172.085 132.033Z" stroke="#212121"/>
<path d="M229.968 114.703H253.098V120.068H229.968V114.703ZM230.547 134.335H256.76V139.827H224.122V95.6389H255.861V101.131H230.547V134.335Z" fill="#212121"/>
<path d="M284.21 140.432L264.419 96.2443H271.359L289.543 137.023H285.559L303.871 96.2443H310.298L290.571 140.432H284.21Z" fill="#212121"/>
<path d="M12.7023 30.5681H27.8199L64.7068 124.095L107.036 30.5681H120.772L99.6225 76.4672L114.034 109.833L107.036 123.144L93.011 90.8161L70.1494 140.432H58.1415L12.7023 30.5681Z" fill="#212121"/>
<path d="M79.6519 63.5878L64.7068 31.4325H78.1833L86.2171 49.6711L79.6519 63.5878Z" fill="#212121"/>
<path d="M126.646 140.432H114.033H112.306L156.363 31.4325H172.085L126.646 140.432Z" fill="#212121"/>
<path d="M99.6225 76.4672L120.772 30.5681H107.036L64.7068 124.095L27.8199 30.5681H12.7023L58.1415 140.432H70.1494L93.011 90.8161M99.6225 76.4672L114.034 109.833L107.036 123.144L93.011 90.8161M99.6225 76.4672L93.011 90.8161M64.7068 31.4325L79.6519 63.5878L86.2171 49.6711L78.1833 31.4325H64.7068ZM114.034 140.432H126.646L172.085 31.4325H156.363L112.306 140.432H114.034Z" stroke="#212121" stroke-width="5"/>
</svg>
